<?xml version="1.0" standalone="no"?>
<!DOCTYPE svg PUBLIC "-//W3C//DTD SVG 1.1//EN" "http://www.w3.org/Graphics/SVG/1.1/DTD/svg11.dtd" >
<svg xmlns="http://www.w3.org/2000/svg" width="100%" height="100%">
<metadata>
Created by FontXChange 20100429 at Mon Oct 19 20:18:45 2015
 By Hugh Francis
Copyright (c) 1992 Image Club Graphics, Inc.
</metadata>
<defs>
<font id="KabelBook" horiz-adv-x="908" >
  <font-face 
    font-family="Kabel"
    font-weight="5"
    font-stretch="normal"
    units-per-em="1297"
    panose-1="0 0 0 0 0 0 0 0 0 0"
    ascent="1037"
    descent="-260"
    x-height="725"
    cap-height="1028"
    bbox="-98 -317 1605 1328"
    underline-thickness="20"
    underline-position="-128"
    unicode-range="U+0020-25CA"
  />
<missing-glyph horiz-adv-x="1011" 
d="M63 0v1011h885v-1011h-885zM885 63v885h-759v-885h759z" />
    <glyph glyph-name=".notdef" horiz-adv-x="1011" 
d="M63 0v1011h885v-1011h-885zM885 63v885h-759v-885h759z" />
    <glyph glyph-name=".null" unicode="&#xd7;" horiz-adv-x="0" 
 />
    <glyph glyph-name=".null" unicode="&#x141;" horiz-adv-x="0" 
 />
    <glyph glyph-name=".null" unicode="&#xfd;" horiz-adv-x="0" 
 />
    <glyph glyph-name="nonmarkingreturn" horiz-adv-x="408" 
 />
    <glyph glyph-name="space" unicode=" " horiz-adv-x="408" 
 />
    <glyph glyph-name="exclam" unicode="!" horiz-adv-x="283" 
d="M193 1032l-7 -796l-89 -9l-5 783zM222 58l-81 -95l-82 92l79 95z" />
    <glyph glyph-name="quotedbl" unicode="&#x22;" horiz-adv-x="409" 
d="M339 700l-103 -7v345l103 6v-344zM162 700l-103 -7v345l103 6v-344z" />
    <glyph glyph-name="numbersign" unicode="#" horiz-adv-x="1019" 
d="M956 1016l-26 -81h-198l-70 -205h200l-17 -79h-212l-75 -219h-91l76 218h-199l-77 -218h-89l75 218h-194l25 76l195 -1l74 207h-202l26 79l204 1l77 219h88l-77 -217l201 -1l81 223l86 -1l-78 -220zM643 935h-202l-71 -207h202z" />
    <glyph glyph-name="dollar" unicode="$" horiz-adv-x="680" 
d="M616 372q0 -95 -61 -154q-42 -41 -113 -62q-44 -13 -62 -13v-111l-73 -12v120q-37 0 -63.5 8.5t-64.5 27t-64.5 40.5t-55.5 60l62 65q17 -27 32.5 -43.5t44.5 -34.5t52.5 -26.5t56.5 -12.5v325q-81 0 -158 68q-72 63 -72 166q0 106 72.5 169.5t157.5 63.5v79l72 21v-99
q31 -4 54 -10t56.5 -21.5t54.5 -30t49 -43.5l-55 -63q-18 22 -34.5 35.5t-41.5 25t-43.5 17t-39.5 5.5v-300q19 0 61 -16q69 -26 114 -75q62 -68 62 -169zM308 641v292q-60 0 -102 -43t-42 -104q0 -58 42.5 -101.5t101.5 -43.5zM529 381q0 65 -44 110t-106 45v-312
q63 0 106.5 45.5t43.5 111.5z" />
    <glyph glyph-name="percent" unicode="%" horiz-adv-x="1187" 
d="M960 1012l-673 -1040l-62 32l546 849q-22 -17 -52 -29.5t-56 -12.5q-32 0 -52.5 5t-47.5 22q6 -24 7.5 -35.5t1.5 -32.5q0 -107 -77.5 -181t-186.5 -74q-103 0 -174.5 77.5t-71.5 182.5q0 103 75.5 176.5t177.5 73.5q86 0 146 -43q142 -101 175 -104q62 0 138 50
q84 55 128 114zM1122 230q0 -104 -77.5 -178t-183.5 -74q-104 0 -178.5 75.5t-74.5 181.5q0 105 75.5 180.5t180.5 75.5q106 0 182 -77t76 -184zM491 769q0 74 -52 127t-125 53q-71 0 -120.5 -55.5t-49.5 -129.5q0 -70 48 -121t116 -51q74 0 128.5 51.5t54.5 125.5z
M1040 247q0 71 -56 118.5t-132 47.5q-69 0 -114.5 -55t-45.5 -129q0 -72 50 -123t122 -51q74 0 125 57t51 135z" />
    <glyph glyph-name="ampersand" unicode="&#x26;" horiz-adv-x="914" 
d="M848 421l-179 -180l174 -209l-76 -49l-162 196l-125 -126q-26 -26 -71 -46q-56 -25 -108 -25q-48 0 -87 17q-47 20 -86 65q-34 39 -49 80.5t-15 84.5q0 62 28 122q20 43 42 65l151 150q-32 32 -68 113q-31 69 -31 124q0 90 61.5 154.5t153.5 64.5q83 0 142.5 -55.5
t59.5 -139.5q0 -56 -38 -113q-21 -31 -64 -73l-93 -90l204 -244l173 180zM512 838q-6 46 -35 71.5t-84 25.5q-52 0 -83 -43.5t-31 -103.5q0 -25 7 -53t37 -71q23 -34 31 -39l83 78q33 33 52 61q23 35 23 65v9zM551 244l-209 252l-102 -99q-36 -35 -57 -78.5t-21 -88.5
q0 -31 9 -56.5t31.5 -49.5t51.5 -36.5t60 -12.5q68 0 117 49z" />
    <glyph glyph-name="quotesingle" unicode="'" horiz-adv-x="219" 
d="M162 700l-103 -7v345l103 6v-344z" />
    <glyph glyph-name="parenleft" unicode="(" horiz-adv-x="530" 
d="M458 1057q-158 -100 -234 -246q-70 -135 -70 -312q0 -171 73.5 -308.5t229.5 -236.5l-35 -67q-150 85 -250 243q-111 176 -111 372q0 203 109 379q100 161 259 250z" />
    <glyph glyph-name="parenright" unicode=")" horiz-adv-x="524" 
d="M456 502q0 -198 -110 -372q-99 -157 -250 -243l-35 67q155 99 231 240q72 134 72 305q0 177 -70 312q-75 146 -235 246l30 74q158 -88 258 -250q109 -176 109 -379z" />
    <glyph glyph-name="asterisk" unicode="*" horiz-adv-x="654" 
d="M595 959l-187 -102l174 -99l-28 -85l-186 114l2 -190l-89 -18l5 208l-169 -101l-58 69l183 102l-164 98l28 85l180 -112v191l86 24l-1 -216l169 102z" />
    <glyph glyph-name="plus" unicode="+" horiz-adv-x="845" 
d="M783 315h-319v-318h-83v318h-316v90h316v318h85v-319h317v-89z" />
    <glyph glyph-name="comma" unicode="," horiz-adv-x="378" 
d="M312 116l-162 -400l-91 2l128 379z" />
    <glyph glyph-name="hyphen" unicode="-" horiz-adv-x="634" 
d="M570 414h-511v90h511v-90z" />
    <glyph glyph-name="period" unicode="." horiz-adv-x="289" 
d="M226 58l-87 -89l-80 96l89 91z" />
    <glyph glyph-name="slash" unicode="/" horiz-adv-x="805" 
d="M741 1100l-608 -1298l-74 25l608 1302z" />
    <glyph glyph-name="zero" unicode="0" horiz-adv-x="907" 
d="M836 482q0 -195 -88 -337q-106 -171 -299 -171t-298 168q-90 144 -90 351q0 226 84 371q101 174 297 174q199 0 301 -160q93 -145 93 -396zM732 477q0 193 -65 324q-77 154 -219 154t-219 -153q-65 -129 -65 -311q0 -173 64 -290q76 -140 220 -140q140 0 218 135
q66 115 66 281z" />
    <glyph glyph-name="one" unicode="1" horiz-adv-x="510" 
d="M451 1050l-1 -1050l-97 -19l1 899l-263 -155l-32 73z" />
    <glyph glyph-name="two" unicode="2" horiz-adv-x="797" 
d="M734 96l-24 -96h-649l355 361q69 70 102 108q55 64 81 115q33 64 33 125q0 94 -66.5 163.5t-160.5 69.5q-95 0 -165.5 -63.5t-70.5 -156.5q0 -105 73 -170q82 -73 163 -73l-77 -78l-49 16q-56 20 -81 39q-42 32 -77 87q-54 86 -54 183q0 137 106 227q98 83 230 83
q136 0 229 -82q100 -88 100 -229q0 -76 -36 -154q-29 -64 -89 -138q-46 -57 -107 -116l-231 -221h465z" />
    <glyph glyph-name="three" unicode="3" horiz-adv-x="740" 
d="M673 277q0 -130 -87 -217t-212 -87q-110 0 -192 49t-123 148l74 54q26 -52 48 -78q69 -79 169 -79q96 0 158 51q69 57 69 159q0 88 -58 149t-143 61q-26 0 -55.5 0.5t-54.5 1.5v84l108 5q60 6 109 42q71 53 71 149q0 78 -50 125t-146 47q-79 0 -154 -62q-25 -20 -59 -62
l-64 64q26 44 90 89q90 63 188 63q126 0 208.5 -74.5t82.5 -191.5q0 -114 -78 -181q-26 -22 -78 -45q10 0 46 -21q54 -31 86 -79q47 -70 47 -164z" />
    <glyph glyph-name="four" unicode="4" horiz-adv-x="844" 
d="M770 343l-21 -92h-160v-276l-94 -12v288h-436l527 794v-702h184zM498 343v424l-282 -424h282z" />
    <glyph glyph-name="five" unicode="5" horiz-adv-x="767" 
d="M702 309q0 -137 -95.5 -236.5t-230.5 -99.5q-93 0 -181.5 46t-135.5 104l71 73q35 -44 63 -66q84 -66 189 -66q74 0 139 64q78 77 78 197q0 94 -64 157q-69 68 -181 68q-55 0 -114.5 -24.5t-88.5 -53.5v537h482l-27 -91l-361 -1v-299q26 9 69 18t64 9q138 0 231 -99
t93 -237z" />
    <glyph glyph-name="six" unicode="6" horiz-adv-x="860" 
d="M796 345q0 -169 -111 -278q-104 -102 -246 -102q-164 0 -266.5 112.5t-102.5 290.5q0 107 66 233q38 72 107 164q53 70 125 144q49 50 112 106q47 42 49 42l85 -56q-60 -45 -110 -91q-43 -39 -103 -101q-36 -38 -74 -85q-42 -53 -72 -98q32 21 88.5 41t99.5 20
q159 0 260 -108q93 -99 93 -234zM701 338q0 109 -77.5 184.5t-192.5 75.5q-116 0 -191.5 -84.5t-75.5 -202.5q0 -108 86 -183q83 -72 198 -72q107 0 180 84.5t73 197.5z" />
    <glyph glyph-name="seven" unicode="7" horiz-adv-x="769" 
d="M708 1011l-378 -1025l-112 -13l357 940h-516l23 98h626z" />
    <glyph glyph-name="eight" unicode="8" horiz-adv-x="756" 
d="M691 259q0 -133 -108 -214q-92 -69 -200 -69q-144 0 -232.5 82.5t-88.5 208.5q0 92 54 163t120 93q-60 30 -101 90q-46 68 -46 153q0 118 86 192q82 70 200 70q115 0 197 -67q90 -74 90 -195q0 -112 -74 -185q-28 -28 -77 -52q71 -24 125.5 -96.5t54.5 -173.5zM568 771
q-8 75 -61.5 121.5t-133.5 46.5q-85 0 -138.5 -53.5t-53.5 -132.5q0 -81 52.5 -134.5t139.5 -53.5q85 0 140.5 54.5t55.5 132.5q0 13 -1 19zM592 270q0 96 -65 153.5t-159 57.5q-86 0 -146.5 -59.5t-60.5 -148.5q0 -96 60.5 -150t155.5 -54q88 0 151.5 56.5t63.5 144.5z" />
    <glyph glyph-name="nine" unicode="9" horiz-adv-x="854" 
d="M794 636q0 -106 -68 -234q-38 -72 -109 -166q-50 -66 -125 -143q-56 -57 -111 -105q-47 -41 -49 -41l-83 62q66 47 110 86q39 34 100 97q33 34 74 85q50 63 72 95q-32 -22 -87 -40t-101 -18q-158 0 -259 108q-93 100 -93 234q0 169 111 278q104 102 245 102
q166 0 269.5 -111.5t103.5 -288.5zM699 687q0 109 -85.5 183.5t-200.5 74.5q-107 0 -179 -84.5t-72 -197.5q0 -108 76.5 -183.5t190.5 -75.5q117 0 193.5 83.5t76.5 199.5z" />
    <glyph glyph-name="colon" unicode=":" horiz-adv-x="285" 
d="M224 434l-85 -93l-80 99l86 88zM227 60l-85 -92l-77 97l85 88z" />
    <glyph glyph-name="semicolon" unicode=";" horiz-adv-x="393" 
d="M325 433l-84 -93l-83 100l87 91zM312 114l-162 -400h-91l128 381z" />
    <glyph glyph-name="less" unicode="&#x3c;" horiz-adv-x="838" 
d="M770 -2l-702 329v75l701 319v-94l-585 -262l586 -276v-91z" />
    <glyph glyph-name="equal" unicode="=" horiz-adv-x="862" 
d="M798 414h-729v82h729v-82zM798 143h-729v81h729v-81z" />
    <glyph glyph-name="greater" unicode="&#x3e;" horiz-adv-x="827" 
d="M776 330l-703 -329v91l586 275l-585 262v95l702 -319v-75z" />
    <glyph glyph-name="question" unicode="?" horiz-adv-x="678" 
d="M614 758q1 -10 1.5 -17.5t0.5 -12.5q0 -76 -46 -142q-39 -56 -117 -111q-38 -27 -51.5 -51.5t-13.5 -61.5v-106l-78 -16v165q0 48 32 87q23 28 73 62q55 38 82 83t27 107q0 78 -48 128q-51 53 -138 53q-101 0 -160 -82q-19 -27 -40 -83l-79 43l24 53q34 62 84 100
q70 54 162 54q117 0 195.5 -70.5t89.5 -181.5zM428 54l-74 -88l-76 92l75 88z" />
    <glyph glyph-name="at" unicode="@" horiz-adv-x="1012" 
d="M957 565q0 -145 -91 -257q-94 -116 -220 -116q-54 0 -80 53q-8 17 -16 53l-39 -44q-50 -57 -124 -57q-77 0 -126.5 61t-49.5 143q0 120 102 210q93 82 188 82q38 0 64.5 -14t36.5 -46l13 -36l26 80l111 3l-101 -374q-5 -18 -5 -36q0 -19 6 -30.5t20 -11.5q79 0 147 105
t68 222q0 150 -118 240q-108 82 -261 82q-166 0 -284 -118t-118 -284q0 -174 120.5 -297.5t292.5 -123.5q126 0 215 48q63 34 104 90l28 49h86l-38 -65q-55 -76 -135 -122q-114 -66 -263 -66q-199 0 -339.5 141.5t-140.5 340.5q0 195 138.5 334.5t333.5 139.5
q180 0 310 -103q139 -110 139 -276zM590 545q0 50 -19.5 82t-56.5 32q-65 0 -125.5 -106.5t-60.5 -210.5q0 -45 19 -73q23 -34 69 -34q65 0 122 117q52 106 52 193z" />
    <glyph glyph-name="A" unicode="A" horiz-adv-x="1066" 
d="M1033 0l-97 -30l-201 416h-413l-202 -410l-100 24l514 1035zM695 477l-165 342l-165 -342h330z" />
    <glyph glyph-name="B" unicode="B" horiz-adv-x="700" 
d="M643 314q0 -152 -85 -235q-81 -79 -220 -79h-279v1011h218q126 0 171.5 -11t93.5 -61q34 -34 56 -86t22 -107q0 -39 -13 -77q-21 -63 -72 -111q-17 -16 -47 -36q52 -26 77 -48q78 -68 78 -160zM472 624q43 55 43 120t-45 116q-28 32 -64.5 43t-88.5 11h-157v-354h102
q75 0 106 6q69 13 104 58zM536 296q0 76 -57.5 124.5t-143.5 48.5h-175v-372h171q89 0 144 48q61 53 61 151z" />
    <glyph glyph-name="C" unicode="C" horiz-adv-x="884" 
d="M832 861q-63 40 -125.5 53.5t-148.5 13.5q-164 0 -276 -128t-112 -314q0 -170 129 -294q125 -120 286 -120h19q12 2 18 2q67 7 110.5 21.5t95.5 50.5l-20 -129q-45 -19 -78.5 -28.5t-71.5 -13t-66 -3.5q-224 0 -377.5 156.5t-153.5 375.5q0 216 151.5 370.5t366.5 154.5
q75 0 124 -8.5t113 -36.5z" />
    <glyph glyph-name="D" unicode="D" horiz-adv-x="874" 
d="M845 529q0 -230 -149.5 -379.5t-369.5 -149.5h-232v1011h263q211 0 352 -146q136 -140 136 -336zM733 530q0 156 -105 270t-258 114h-172v-817h168q159 0 266 134q101 127 101 299z" />
    <glyph glyph-name="E" unicode="E" horiz-adv-x="714" 
d="M681 97l-24 -97h-567v1011h539l24 -97h-459v-355h389v-97h-389v-365h487z" />
    <glyph glyph-name="F" unicode="F" horiz-adv-x="616" 
d="M594 914h-393v-355h304v-97h-304v-462l-107 -10v1021h476z" />
    <glyph glyph-name="G" unicode="G" horiz-adv-x="1014" 
d="M952 115l-45 -32q-50 -33 -111 -60q-81 -36 -149 -43q-32 -3 -62 -3q-221 0 -373.5 156.5t-152.5 374.5t152.5 374.5t368.5 156.5q81 0 171 -29q110 -36 186 -103l-63 -79q-65 58 -159 85q-74 21 -160 21q-165 0 -275.5 -128.5t-110.5 -314.5q0 -171 128 -295
q123 -119 284 -119q9 0 20.5 1t17.5 1q84 9 164 49q22 11 67 41v293h-330l30 97h402v-444z" />
    <glyph glyph-name="H" unicode="H" horiz-adv-x="917" 
d="M858 0l-107 -19v467h-586v-448l-106 -19v1029l106 15v-482h588v468l105 14v-1025z" />
    <glyph glyph-name="I" unicode="I" horiz-adv-x="337" 
d="M218 0l-107 -15v1026l107 17v-1028z" />
    <glyph glyph-name="J" unicode="J" horiz-adv-x="624" 
d="M541 307q0 -108 -21 -168q-28 -81 -103 -124q-36 -22 -77 -32.5t-77 -10.5q-56 0 -105 18.5t-90 49.5l47 89q21 -21 65.5 -39t84.5 -18q20 0 37 3.5t35 12.5q61 30 81 82q14 37 14 112v729l109 16v-720z" />
    <glyph glyph-name="K" unicode="K" horiz-adv-x="787" 
d="M764 22l-98 -43l-456 545v-524l-107 -13v1024l105 20v-485l413 483l104 -40l-392 -449z" />
    <glyph glyph-name="L" unicode="L" horiz-adv-x="659" 
d="M640 97l-30 -97h-502v1011l105 18v-932h427z" />
    <glyph glyph-name="M" unicode="M" horiz-adv-x="1255" 
d="M1183 0l-101 -25l-135 736l-324 -759l-318 765l-141 -741l-105 24l214 1049l351 -847l358 850z" />
    <glyph glyph-name="N" unicode="N" horiz-adv-x="934" 
d="M865 -36l-703 811v-775l-103 -24v1063l709 -812v784l97 18v-1065z" />
    <glyph glyph-name="O" unicode="O" horiz-adv-x="1181" 
d="M1112 498q0 -214 -153 -370t-367 -156q-220 0 -375 157t-155 378q0 216 153.5 371.5t366.5 155.5q219 0 374.5 -156.5t155.5 -379.5zM1005 503q0 177 -121 303q-124 129 -309 129q-170 0 -290.5 -128.5t-120.5 -300.5q0 -177 124.5 -306.5t297.5 -129.5t296 127t123 306z
" />
    <glyph glyph-name="P" unicode="P" horiz-adv-x="687" 
d="M623 670q0 -147 -104 -245t-253 -98h-99v-327l-108 -15v1026h189q172 0 273.5 -91t101.5 -250zM515 692q0 103 -84 165q-78 57 -189 57h-74v-486h83q111 0 187.5 73.5t76.5 190.5z" />
    <glyph glyph-name="Q" unicode="Q" horiz-adv-x="1223" 
d="M1175 -26l-75 -70l-194 179q-69 -49 -141 -76q-91 -34 -180 -34q-203 0 -360 151q-163 157 -163 374q0 229 155 383t373 154q221 0 379 -153t158 -371q0 -103 -47 -206q-40 -88 -104 -153zM1017 522q0 173 -126 294t-299 121q-177 0 -300 -125t-123 -311q0 -185 131 -309
q121 -115 280 -115q80 0 135.5 16.5t114.5 54.5l-136 125l78 69l132 -124q62 67 89 146q24 70 24 158z" />
    <glyph glyph-name="R" unicode="R" horiz-adv-x="727" 
d="M667 27l-98 -49l-409 499v-477l-101 -15v1026h211q153 0 240 -87q84 -84 84 -225q0 -88 -45 -156q-40 -60 -112 -98q-33 -18 -69 -23q-13 -2 -33 -2zM488 712q0 99 -64 154q-56 48 -141 48h-123v-418h96q81 0 140 36q92 56 92 180z" />
    <glyph glyph-name="S" unicode="S" horiz-adv-x="751" 
d="M685 263q0 -123 -93 -208t-222 -85q-106 0 -191 54.5t-120 124.5l81 74q20 -60 80 -104q65 -48 154 -48q84 0 142.5 52.5t58.5 127.5q0 85 -44 132q-34 36 -109 62l-136 42q-93 32 -143 93q-57 69 -57 168q0 129 87.5 208.5t212.5 79.5q87 0 163 -40q88 -46 110 -91
l-72 -75q-27 35 -48 52q-67 53 -151 53q-77 0 -134.5 -47.5t-57.5 -121.5q0 -91 51 -136q47 -41 170.5 -69.5t195.5 -104.5t72 -193z" />
    <glyph glyph-name="T" unicode="T" horiz-adv-x="727" 
d="M704 914h-273v-914l-110 -16v930h-297l31 97h649v-97z" />
    <glyph glyph-name="U" unicode="U" horiz-adv-x="867" 
d="M808 355q0 -180 -99 -276t-273 -96q-178 0 -277.5 95.5t-99.5 250.5v682l111 15v-712q0 -85 43 -143q66 -90 220 -90q125 0 195 68q75 73 75 188v674l105 16v-672z" />
    <glyph glyph-name="V" unicode="V" horiz-adv-x="1015" 
d="M989 1011l-478 -1051l-478 1051l105 23l373 -834l381 839z" />
    <glyph glyph-name="W" unicode="W" horiz-adv-x="1338" 
d="M1309 1011l-438 -1053l-205 484l-198 -489l-439 1058l107 25l336 -831l143 351l-189 455l97 21l147 -354l142 353l89 -20l-180 -450l150 -356l332 828z" />
    <glyph glyph-name="X" unicode="X" horiz-adv-x="1021" 
d="M985 0l-95 -49l-382 516l-366 -511l-100 44l404 549l-334 462l88 50l309 -426l309 429l89 -53l-337 -460z" />
    <glyph glyph-name="Y" unicode="Y" horiz-adv-x="853" 
d="M812 1011l-512 -1041l-107 30l196 372l-360 639l103 37l312 -563l271 560z" />
    <glyph glyph-name="Z" unicode="Z" horiz-adv-x="904" 
d="M830 97l-22 -97h-749l569 914h-535l20 98l699 -1l-576 -914h594z" />
    <glyph glyph-name="bracketleft" unicode="[" horiz-adv-x="394" 
d="M335 -197h-271v1273h263v-69h-164l2 -1135h170v-69z" />
    <glyph glyph-name="backslash" unicode="\" horiz-adv-x="711" 
d="M648 -31l-74 -25l-515 1094l74 29z" />
    <glyph glyph-name="bracketright" unicode="]" horiz-adv-x="393" 
d="M334 -197h-271v68h171v1135h-164v69h264v-1272z" />
    <glyph glyph-name="asciicircum" unicode="^" horiz-adv-x="623" 
d="M560 863l-96 -36l-156 108l-162 -109l-87 36l249 179z" />
    <glyph glyph-name="underscore" unicode="_" horiz-adv-x="879" 
d="M912 -223h-906v44h906v-44z" />
    <glyph glyph-name="grave" unicode="`" horiz-adv-x="468" 
d="M407 890l-42 -70l-306 137l46 89z" />
    <glyph glyph-name="a" unicode="a" horiz-adv-x="681" 
d="M607 0l-87 -14v87q-31 -34 -54 -50q-70 -50 -151 -50q-118 0 -193 71q-79 75 -79 204q0 105 76.5 179.5t184.5 74.5q87 0 156 -41q23 -13 52 -41v54v28q0 69 -23 101q-37 52 -140 52q-71 0 -161 -29q-71 -23 -80 -32l38 114q5 2 48 11q106 22 170 22q243 0 243 -229v-512
zM520 251q0 75 -58 121.5t-143 46.5q-80 0 -132 -51t-52 -135t60 -130q54 -41 137 -41q80 0 134 52t54 137z" />
    <glyph glyph-name="b" unicode="b" horiz-adv-x="886" 
d="M820 351q0 -152 -109 -262t-262 -110q-163 0 -276.5 109.5t-113.5 267.5v655l96 22v-438l30 38q39 42 90 70q71 39 147 39q172 0 285 -113t113 -278zM722 382q0 112 -87.5 188.5t-206.5 76.5q-115 0 -194.5 -85.5t-79.5 -203.5q0 -120 86 -204t206 -84q119 0 199 95
q77 91 77 217z" />
    <glyph glyph-name="c" unicode="c" horiz-adv-x="775" 
d="M699 651l-55 -73q-31 24 -54 35q-71 36 -147 36q-20 0 -30 -1q-117 -10 -189 -98q-68 -83 -68 -202q0 -117 77 -201q81 -88 201 -88q69 0 121.5 21.5t85.5 54.5l52 -70q-37 -32 -64 -48q-84 -49 -178 -49q-166 0 -278.5 111.5t-112.5 273.5q0 159 105.5 272.5
t265.5 113.5q96 0 192 -44q31 -14 76 -44z" />
    <glyph glyph-name="d" unicode="d" horiz-adv-x="879" 
d="M783 0l-89 -18v134q-38 -57 -118 -101t-177 -44q-157 0 -265 113t-108 268q0 153 107 267q111 118 271 118q88 0 161 -36q51 -25 93 -68q15 -19 31 -37v415l94 19v-1030zM701 344q0 131 -85 218t-206 87q-119 0 -206 -80.5t-87 -201.5q0 -128 82 -217t206 -89
q111 0 201 81q95 85 95 202z" />
    <glyph glyph-name="e" unicode="e" horiz-adv-x="809" 
d="M748 566l-560 -344l22 -42q32 -48 80 -78q67 -42 156 -42q90 0 198 68q36 22 90 68v-121q-48 -36 -81 -53q-102 -54 -200 -54q-163 0 -276 108q-117 112 -117 281q0 145 90 254q95 114 244 129q14 2 28.5 2h22.5q100 0 178 -45q56 -32 96 -85zM616 589q-29 22 -50 33
q-65 34 -129 34q-39 0 -77 -11t-79 -38q-73 -49 -104 -131q-21 -56 -21 -123q0 -20 0.5 -28.5t2.5 -15.5z" />
    <glyph glyph-name="f" unicode="f" horiz-adv-x="557" 
d="M545 947q-8 2 -20 3t-32 1q-48 0 -82 -11q-47 -15 -67.5 -49.5t-27.5 -70t-7 -69.5q0 -12 1 -23q0 -3 1 -8h215v-90h-215v-630l-97 -20v650h-111l24 90h85q-1 10 -1 17q0 56 10 102q16 76 58 122.5t111 65.5q46 13 102 13q12 0 23 -1q3 0 9 -1z" />
    <glyph glyph-name="g" unicode="g" horiz-adv-x="778" 
d="M717 774l-29 -103l-99 -5q38 -25 69 -81.5t31 -118.5q0 -109 -74 -178q-24 -23 -75 -47q53 -26 81 -53q78 -73 78 -182q0 -126 -84.5 -210.5t-208.5 -84.5q-112 0 -202 48q-65 35 -111 89l-34 49l72 55q18 -53 94.5 -101t174.5 -48q86 0 144 49q63 53 63 138
q0 92 -70 152q-65 55 -150 55q-78 0 -146 -27q-22 -9 -52 -27l43 106q-27 14 -43 26q-94 73 -94 198q0 124 88 198q79 67 189 67q25 0 64 -1t56 -1q30 0 58 2t68.5 9t73.5 18q12 4 25 9zM597 480q0 78 -64 126.5t-145 48.5q-84 0 -143 -52t-59 -130q0 -86 60 -140
q57 -51 140 -51q96 0 153.5 56.5t57.5 141.5z" />
    <glyph glyph-name="h" unicode="h" horiz-adv-x="703" 
d="M644 0l-90 -24v473q0 85 -41 135q-48 59 -146 59q-100 0 -156.5 -57.5t-56.5 -133.5v-451l-94 -25v1035l88 20v-415q31 46 85 78q59 35 127 35q135 0 208 -69q54 -51 70 -134q6 -31 6 -87v-439z" />
    <glyph glyph-name="i" unicode="i" horiz-adv-x="317" 
d="M237 950l-67 -86l-79 84l73 84zM215 -1l-96 -25v735l96 18v-728z" />
    <glyph glyph-name="j" unicode="j" horiz-adv-x="316" 
d="M233 956l-67 -86l-78 84l72 84zM212 -2v-16q0 -53 -6 -84q-11 -56 -42 -96q-39 -50 -103 -72q-44 -15 -95 -15q-12 0 -23 1q-3 0 -8 1l-33 94q6 -6 52 -6q34 0 62.5 7t53.5 27.5t35.5 51t10.5 71.5v746l96 24v-734z" />
    <glyph glyph-name="k" unicode="k" horiz-adv-x="669" 
d="M656 32l-74 -57l-383 369v-344l-91 -22v1033l91 20v-675l337 396l80 -44l-301 -353z" />
    <glyph glyph-name="l" unicode="l" horiz-adv-x="326" 
d="M219 0l-94 -21v1032l93 19z" />
    <glyph glyph-name="m" unicode="m" horiz-adv-x="1086" 
d="M1032 0l-96 -12v507q0 65 -32 108q-43 57 -132 57q-117 0 -158 -90q-24 -52 -24 -161v-409l-97 -21v492q0 77 -21 117q-37 69 -138 69q-86 0 -132.5 -64.5t-46.5 -174.5v-418l-96 -19v727l95 16v-105q22 45 40 64q57 62 145 62q86 0 148 -39q50 -31 78 -88q35 64 95 97
t128 33q100 0 167 -56q77 -64 77 -180v-512z" />
    <glyph glyph-name="n" unicode="n" horiz-adv-x="707" 
d="M644 0l-96 -17v504q0 62 -43 112q-52 61 -142 61q-115 0 -170 -101q-36 -66 -36 -137v-422l-96 -17v725l91 16v-104q37 55 86 86q62 39 137 39q107 0 177 -55q92 -72 92 -225v-465z" />
    <glyph glyph-name="o" unicode="o" 
d="M843 353q0 -155 -111.5 -269.5t-269.5 -114.5q-162 0 -277 112t-115 273q0 159 111.5 273.5t264.5 114.5q175 0 286 -112t111 -277zM747 356q0 122 -86 209t-208 87q-121 0 -205.5 -87.5t-84.5 -210.5q0 -122 85.5 -207.5t207.5 -85.5q121 0 206 87t85 208z" />
    <glyph glyph-name="p" unicode="p" horiz-adv-x="902" 
d="M838 353q0 -160 -112 -271t-277 -111q-83 0 -157 37q-50 25 -98 71l-34 38v-380l-101 -30v1001l95 19v-145q23 34 32 45q42 50 98 81q78 44 168 44q160 0 273 -118t113 -281zM739 351q0 126 -75 216q-78 93 -195 93q-118 0 -214 -77q-103 -82 -103 -199
q0 -133 83.5 -226.5t208.5 -93.5q123 0 207 78q88 81 88 209z" />
    <glyph glyph-name="q" unicode="q" horiz-adv-x="894" 
d="M824 -286l-79 -17v436l-31 -42q-41 -49 -93 -80q-71 -43 -148 -43q-174 0 -290 116t-116 284q0 156 109.5 264.5t272.5 108.5q93 0 173 -52q95 -62 113 -115v134l89 22v-1016zM735 382q0 115 -100 196q-94 76 -212 76q-120 0 -197 -101q-71 -94 -71 -223q0 -116 92 -197
q89 -78 211 -78t199.5 95.5t77.5 231.5z" />
    <glyph glyph-name="r" unicode="r" horiz-adv-x="518" 
d="M501 737l-44 -101q-4 1 -7 1q-18 4 -32 4q-20 0 -40 -4.5t-44 -17.5q-52 -28 -91 -96q-44 -77 -44 -164v-359l-96 -19v727l89 21v-161q15 45 56 88q45 47 105 69q20 7 56 10t60 3q29 -1 32 -1z" />
    <glyph glyph-name="s" unicode="s" horiz-adv-x="617" 
d="M557 181q0 -94 -72 -155t-176 -61q-78 0 -141 29q-43 20 -81 56l-28 31l65 67q27 -32 47 -48q62 -48 136 -48q66 0 112 39t46 92q0 93 -112 124l-118 29q-72 22 -112 68q-43 50 -43 120q0 100 75 163q70 58 168 58q88 0 165 -46q25 -15 60 -47l-57 -65q-25 23 -44 34
q-59 35 -128 35q-63 0 -106 -33t-43 -86q0 -61 41 -89q33 -22 134.5 -42.5t156.5 -76.5t55 -148z" />
    <glyph glyph-name="t" unicode="t" horiz-adv-x="539" 
d="M478 -14q-15 -4 -26 -6q-37 -7 -67 -7q-42 0 -78 9t-70 35q-51 37 -65 115q-8 43 -8 154v341h-105l23 81h82v176l93 64v-240h219v-81h-220v-353q0 -75 5.5 -117.5t30.5 -63.5q20 -17 47 -24.5t53 -7.5q31 0 61 7q10 2 25 8v-90z" />
    <glyph glyph-name="u" unicode="u" horiz-adv-x="702" 
d="M636 0l-90 -17v106q-28 -42 -51 -63q-68 -62 -160 -62q-11 -1 -16 -1q-93 0 -165 57q-95 75 -95 217v471l97 17v-509q0 -62 42 -108q51 -56 143 -56q89 0 141 66q59 75 59 185v405l95 18v-726z" />
    <glyph glyph-name="v" unicode="v" horiz-adv-x="748" 
d="M733 708l-345 -748l-357 748l93 26l263 -559l254 559z" />
    <glyph glyph-name="w" unicode="w" horiz-adv-x="1248" 
d="M1222 708l-337 -757l-268 589l-264 -585l-329 753l91 24l241 -562l259 578l269 -581l249 565z" />
    <glyph glyph-name="x" unicode="x" horiz-adv-x="755" 
d="M732 0l-91 -46l-258 353l-255 -352l-90 43l286 379l-257 331l83 43l232 -306l235 302l84 -39l-258 -331z" />
    <glyph glyph-name="y" unicode="y" horiz-adv-x="806" 
d="M769 708l-495 -1004l-96 31l190 371l-344 602l102 37l294 -531l256 524z" />
    <glyph glyph-name="z" unicode="z" horiz-adv-x="817" 
d="M739 725l-490 -634h480l-20 -91h-650l491 635h-423l16 90h596z" />
    <glyph glyph-name="braceleft" unicode="{" horiz-adv-x="441" 
d="M382 -255l-39 -2q-54 0 -102 28t-58 65q-5 19 -8.5 40t-3.5 42v311q0 36 -7.5 63.5t-25.5 46.5t-35 28q-22 12 -48 12q29 4 52 18.5t39.5 36t21.5 43t5 53.5v23v271q0 56 8.5 87.5t39.5 61.5q25 24 51 31t69 7l38 1q-57 -15 -91 -63q-18 -26 -23 -50t-5 -66v-282
q0 -41 -5 -63q-8 -33 -30 -60q-17 -20 -35.5 -31t-44.5 -17q27 -5 45.5 -15t35.5 -31q21 -26 27 -56.5t6 -77.5v-300q0 -31 4.5 -50t20.5 -42q20 -28 42.5 -42.5t55.5 -20.5z" />
    <glyph glyph-name="bar" unicode="|" horiz-adv-x="206" 
d="M137 -281h-78v1292h78v-1292z" />
    <glyph glyph-name="braceright" unicode="}" horiz-adv-x="459" 
d="M388 380q-25 0 -45 -10t-37 -28t-25.5 -47.5t-8.5 -63.5v-311q0 -25 -2 -38.5t-11 -47t-57 -61.5t-102 -28l-39 2q32 5 54.5 19.5t43.5 43.5q16 22 20.5 41t4.5 51v299q0 53 5.5 80t28.5 55q17 21 34.5 30.5t45.5 14.5q-27 7 -44 17.5t-35 31.5q-22 25 -29 54.5t-7 68.5
v281q0 42 -4.5 66t-23.5 50q-34 49 -91 64l38 -1q42 0 68 -7t53.5 -33t38.5 -65q8 -30 8 -83v-270q0 -25 1 -57t25 -63q17 -22 39.5 -36t52.5 -19z" />
    <glyph glyph-name="asciitilde" unicode="~" horiz-adv-x="635" 
d="M574 1006q-34 -43 -75 -67.5t-88 -24.5q-38 0 -97 24.5t-86 24.5t-52 -15q-16 -10 -44 -36l-73 44q38 46 69 65q39 24 90 24q38 0 79 -14q96 -33 107 -33q41 0 69 23q22 25 23 26z" />
    <glyph glyph-name="Adieresis" unicode="&#xc4;" horiz-adv-x="1128" 
d="M1033 0l-97 -30l-201 416h-413l-202 -410l-100 24l514 1035zM695 477l-165 342l-165 -342h330zM742 1165l-72 -91l-75 86l73 93zM473 1163l-70 -92l-75 86l73 94z" />
    <glyph glyph-name="Aring" unicode="&#xc5;" horiz-adv-x="1129" 
d="M662 1210q0 -47 -31.5 -81.5t-77.5 -34.5q-52 0 -89 32.5t-37 82.5q0 49 34 84t84 35q47 0 82 -35t35 -83zM598 1214q0 22 -16.5 36.5t-38.5 14.5q-21 0 -36 -16t-15 -38q0 -23 16 -39t38 -16q23 0 37.5 17.5t14.5 40.5zM1033 0l-97 -30l-201 416h-413l-202 -410l-100 24
l514 1035zM695 477l-165 342l-165 -342h330z" />
    <glyph glyph-name="Ccedilla" unicode="&#xc7;" horiz-adv-x="896" 
d="M831 870q-62 40 -124.5 53.5t-149.5 13.5q-165 0 -276 -128t-111 -314q0 -171 128 -294q125 -120 286 -120h19q12 2 18 2q68 7 111 21.5t95 51.5l-21 -128q-51 -24 -110 -36q-33 -7 -55.5 -9t-60.5 -2l-7 -47l28 2q38 0 66 -34t28 -79q0 -54 -37 -89t-89 -35
q-39 0 -90 23q-16 7 -43 23l57 57q4 -4 27.5 -13.5t43.5 -9.5q22 0 37 11t15 30t-8.5 31t-24.5 12q-25 0 -38 -8q-2 -1 -5 -5l-61 26l34 112q-199 28 -326 175.5t-127 349.5q0 216 151.5 370.5t366.5 154.5q75 0 124 -8.5t113 -36.5z" />
    <glyph glyph-name="Eacute" unicode="&#xc9;" horiz-adv-x="713" 
d="M681 97l-24 -97h-567v1011h539l24 -97h-459v-355h389v-97h-389v-365h487zM595 1224l-327 -137l-36 72l314 160z" />
    <glyph glyph-name="Ntilde" unicode="&#xd1;" horiz-adv-x="923" 
d="M865 -36l-703 811v-775l-103 -24v1063l709 -812v784l97 18v-1065zM731 1174q-34 -43 -75 -67.5t-88 -24.5q-38 0 -97 24.5t-86 24.5t-52 -15q-16 -10 -44 -36l-73 44q38 46 69 65q39 24 90 24q38 0 79 -14q96 -33 107 -33q41 0 69 23q22 25 23 26z" />
    <glyph glyph-name="Odieresis" unicode="&#xd6;" horiz-adv-x="1179" 
d="M1112 498q0 -214 -153 -370t-367 -156q-220 0 -375 157t-155 378q0 216 153.5 371.5t366.5 155.5q219 0 374.5 -156.5t155.5 -379.5zM1005 503q0 177 -121 303q-124 129 -309 129q-170 0 -290.5 -128.5t-120.5 -300.5q0 -177 124.5 -306.5t297.5 -129.5t296 127t123 306z
M798 1162l-72 -91l-75 86l73 93zM529 1160l-70 -92l-75 86l73 94z" />
    <glyph glyph-name="Udieresis" unicode="&#xdc;" horiz-adv-x="866" 
d="M808 355q0 -180 -99 -276t-273 -96q-178 0 -277.5 95.5t-99.5 250.5v682l111 15v-712q0 -85 43 -143q66 -90 220 -90q125 0 195 68q75 73 75 188v674l105 16v-672zM635 1168l-72 -91l-75 86l73 93zM366 1166l-70 -92l-75 86l73 94z" />
    <glyph glyph-name="aacute" unicode="&#xe1;" horiz-adv-x="689" 
d="M607 0l-87 -14v87q-31 -34 -54 -50q-70 -50 -151 -50q-118 0 -193 71q-79 75 -79 204q0 105 76.5 179.5t184.5 74.5q87 0 156 -41q23 -13 52 -41v54v28q0 69 -23 101q-37 52 -140 52q-71 0 -161 -29q-71 -23 -80 -32l38 114q5 2 48 11q106 22 170 22q243 0 243 -229v-512
zM520 251q0 75 -58 121.5t-143 46.5q-80 0 -132 -51t-52 -135t60 -130q54 -41 137 -41q80 0 134 52t54 137zM533 940l-327 -137l-36 72l314 160z" />
    <glyph glyph-name="agrave" unicode="&#xe0;" horiz-adv-x="684" 
d="M607 0l-87 -14v87q-31 -34 -54 -50q-70 -50 -151 -50q-118 0 -193 71q-79 75 -79 204q0 105 76.5 179.5t184.5 74.5q87 0 156 -41q23 -13 52 -41v54v28q0 69 -23 101q-37 52 -140 52q-71 0 -161 -29q-71 -23 -80 -32l38 114q5 2 48 11q106 22 170 22q243 0 243 -229v-512
zM520 251q0 75 -58 121.5t-143 46.5q-80 0 -132 -51t-52 -135t60 -130q54 -41 137 -41q80 0 134 52t54 137zM528 866l-42 -70l-306 137l46 89z" />
    <glyph glyph-name="acircumflex" unicode="&#xe2;" horiz-adv-x="688" 
d="M607 0l-87 -14v87q-31 -34 -54 -50q-70 -50 -151 -50q-118 0 -193 71q-79 75 -79 204q0 105 76.5 179.5t184.5 74.5q87 0 156 -41q23 -13 52 -41v54v28q0 69 -23 101q-37 52 -140 52q-71 0 -161 -29q-71 -23 -80 -32l38 114q5 2 48 11q106 22 170 22q243 0 243 -229v-512
zM520 251q0 75 -58 121.5t-143 46.5q-80 0 -132 -51t-52 -135t60 -130q54 -41 137 -41q80 0 134 52t54 137zM602 838l-96 -36l-156 108l-162 -109l-87 36l249 179z" />
    <glyph glyph-name="adieresis" unicode="&#xe4;" horiz-adv-x="691" 
d="M607 0l-87 -14v87q-31 -34 -54 -50q-70 -50 -151 -50q-118 0 -193 71q-79 75 -79 204q0 105 76.5 179.5t184.5 74.5q87 0 156 -41q23 -13 52 -41v54v28q0 69 -23 101q-37 52 -140 52q-71 0 -161 -29q-71 -23 -80 -32l38 114q5 2 48 11q106 22 170 22q243 0 243 -229v-512
zM520 251q0 75 -58 121.5t-143 46.5q-80 0 -132 -51t-52 -135t60 -130q54 -41 137 -41q80 0 134 52t54 137zM559 893l-72 -91l-75 86l73 93zM290 891l-70 -92l-75 86l73 94z" />
    <glyph glyph-name="atilde" unicode="&#xe3;" horiz-adv-x="680" 
d="M607 0l-87 -14v87q-31 -34 -54 -50q-70 -50 -151 -50q-118 0 -193 71q-79 75 -79 204q0 105 76.5 179.5t184.5 74.5q87 0 156 -41q23 -13 52 -41v54v28q0 69 -23 101q-37 52 -140 52q-71 0 -161 -29q-71 -23 -80 -32l38 114q5 2 48 11q106 22 170 22q243 0 243 -229v-512
zM520 251q0 75 -58 121.5t-143 46.5q-80 0 -132 -51t-52 -135t60 -130q54 -41 137 -41q80 0 134 52t54 137zM603 895q-34 -43 -75 -67.5t-88 -24.5q-38 0 -97 24.5t-86 24.5t-52 -15q-16 -10 -44 -36l-73 44q38 46 69 65q39 24 90 24q38 0 79 -14q96 -33 107 -33q41 0 69 23
q22 25 23 26z" />
    <glyph glyph-name="aring" unicode="&#xe5;" horiz-adv-x="683" 
d="M447 919q0 -48 -31.5 -82.5t-77.5 -34.5q-51 0 -88.5 33.5t-37.5 82.5t34.5 83.5t83.5 34.5q48 0 82.5 -34.5t34.5 -82.5zM383 922q0 22 -16.5 36.5t-38.5 14.5q-21 0 -36 -16t-15 -38t16 -38t38 -16q23 0 37.5 17.5t14.5 39.5zM607 0l-87 -14v87q-31 -34 -54 -50
q-70 -50 -151 -50q-118 0 -193 71q-79 75 -79 204q0 105 76.5 179.5t184.5 74.5q87 0 156 -41q23 -13 52 -41v54v28q0 69 -23 101q-37 52 -140 52q-71 0 -161 -29q-71 -23 -80 -32l38 114q5 2 48 11q106 22 170 22q243 0 243 -229v-512zM520 251q0 75 -58 121.5t-143 46.5
q-80 0 -132 -51t-52 -135t60 -130q54 -41 137 -41q80 0 134 52t54 137z" />
    <glyph glyph-name="ccedilla" unicode="&#xe7;" horiz-adv-x="767" 
d="M701 648l-56 -73q-31 24 -54 35q-71 36 -147 36q-20 0 -30 -1q-117 -10 -189 -98q-68 -83 -68 -202q0 -117 77 -201q81 -88 201 -88q69 0 121.5 21.5t85.5 54.5l54 -70q-7 -8 -13 -13q-38 -34 -100 -57q-41 -15 -58.5 -19.5t-49.5 -4.5l-7 -50l27 2q39 0 67 -34t28 -80
q0 -54 -37.5 -88.5t-88.5 -34.5q-34 0 -69 13q-49 18 -64 33l57 57q2 -2 14 -8q32 -16 57 -16q21 0 36.5 12t15.5 29q0 19 -8.5 31.5t-24.5 12.5q-19 0 -33 -7q-4 -2 -10 -7l-61 26l34 112q-149 14 -248 122t-99 257q0 159 105.5 272.5t265.5 113.5q96 0 192 -44
q32 -14 77 -44z" />
    <glyph glyph-name="eacute" unicode="&#xe9;" horiz-adv-x="814" 
d="M748 566l-560 -344l22 -42q32 -48 80 -78q67 -42 156 -42q90 0 198 68q36 22 90 68v-121q-48 -36 -81 -53q-102 -54 -200 -54q-163 0 -276 108q-117 112 -117 281q0 145 90 254q95 114 244 129q14 2 28.5 2h22.5q100 0 178 -45q56 -32 96 -85zM616 589q-29 22 -50 33
q-65 34 -129 34q-39 0 -77 -11t-79 -38q-73 -49 -104 -131q-21 -56 -21 -123q0 -20 0.5 -28.5t2.5 -15.5zM632 937l-327 -137l-36 72l314 160z" />
    <glyph glyph-name="egrave" unicode="&#xe8;" horiz-adv-x="823" 
d="M748 566l-560 -344l22 -42q32 -48 80 -78q67 -42 156 -42q90 0 198 68q36 22 90 68v-121q-48 -36 -81 -53q-102 -54 -200 -54q-163 0 -276 108q-117 112 -117 281q0 145 90 254q95 114 244 129q14 2 28.5 2h22.5q100 0 178 -45q56 -32 96 -85zM616 589q-29 22 -50 33
q-65 34 -129 34q-39 0 -77 -11t-79 -38q-73 -49 -104 -131q-21 -56 -21 -123q0 -20 0.5 -28.5t2.5 -15.5zM614 869l-42 -70l-306 137l46 89z" />
    <glyph glyph-name="ecircumflex" unicode="&#xea;" horiz-adv-x="815" 
d="M748 566l-560 -344l22 -42q32 -48 80 -78q67 -42 156 -42q90 0 198 68q36 22 90 68v-121q-48 -36 -81 -53q-102 -54 -200 -54q-163 0 -276 108q-117 112 -117 281q0 145 90 254q95 114 244 129q14 2 28.5 2h22.5q100 0 178 -45q56 -32 96 -85zM616 589q-29 22 -50 33
q-65 34 -129 34q-39 0 -77 -11t-79 -38q-73 -49 -104 -131q-21 -56 -21 -123q0 -20 0.5 -28.5t2.5 -15.5zM701 836l-96 -36l-156 108l-162 -109l-87 36l249 179z" />
    <glyph glyph-name="edieresis" unicode="&#xeb;" horiz-adv-x="809" 
d="M748 566l-560 -344l22 -42q32 -48 80 -78q67 -42 156 -42q90 0 198 68q36 22 90 68v-121q-48 -36 -81 -53q-102 -54 -200 -54q-163 0 -276 108q-117 112 -117 281q0 145 90 254q95 114 244 129q14 2 28.5 2h22.5q100 0 178 -45q56 -32 96 -85zM616 589q-29 22 -50 33
q-65 34 -129 34q-39 0 -77 -11t-79 -38q-73 -49 -104 -131q-21 -56 -21 -123q0 -20 0.5 -28.5t2.5 -15.5zM655 890l-72 -91l-75 86l73 93zM386 888l-70 -92l-75 86l73 94z" />
    <glyph glyph-name="iacute" unicode="&#xed;" horiz-adv-x="317" 
d="M211 -1l-95 -25v735l95 18v-728zM344 935l-327 -137l-36 72l314 160z" />
    <glyph glyph-name="igrave" unicode="&#xec;" horiz-adv-x="318" 
d="M207 -1l-96 -25v735l96 18v-728zM322 866l-42 -70l-306 137l46 89z" />
    <glyph glyph-name="icircumflex" unicode="&#xee;" horiz-adv-x="317" 
d="M213 -1l-96 -25v735l96 18v-728zM418 835l-96 -36l-156 108l-162 -109l-87 36l249 179z" />
    <glyph glyph-name="idieresis" unicode="&#xef;" horiz-adv-x="322" 
d="M212 3l-96 -25v735l96 18v-728zM368 894l-72 -91l-75 86l73 93zM99 892l-70 -92l-75 86l73 94z" />
    <glyph glyph-name="ntilde" unicode="&#xf1;" horiz-adv-x="703" 
d="M644 0l-96 -17v504q0 62 -43 112q-52 61 -142 61q-115 0 -170 -101q-36 -66 -36 -137v-422l-96 -17v725l91 16v-104q37 55 86 86q62 39 137 39q107 0 177 -55q92 -72 92 -225v-465zM624 891q-34 -43 -75 -67.5t-88 -24.5q-38 0 -97 24.5t-86 24.5t-52 -15
q-16 -10 -44 -36l-73 44q38 46 69 65q39 24 90 24q38 0 79 -14q96 -33 107 -33q41 0 69 23q22 25 23 26z" />
    <glyph glyph-name="oacute" unicode="&#xf3;" horiz-adv-x="915" 
d="M843 353q0 -155 -111.5 -269.5t-269.5 -114.5q-162 0 -277 112t-115 273q0 159 111.5 273.5t264.5 114.5q175 0 286 -112t111 -277zM747 356q0 122 -86 209t-208 87q-121 0 -205.5 -87.5t-84.5 -210.5q0 -122 85.5 -207.5t207.5 -85.5q121 0 206 87t85 208zM639 933
l-327 -137l-36 72l314 160z" />
    <glyph glyph-name="ograve" unicode="&#xf2;" horiz-adv-x="912" 
d="M843 353q0 -155 -111.5 -269.5t-269.5 -114.5q-162 0 -277 112t-115 273q0 159 111.5 273.5t264.5 114.5q175 0 286 -112t111 -277zM747 356q0 122 -86 209t-208 87q-121 0 -205.5 -87.5t-84.5 -210.5q0 -122 85.5 -207.5t207.5 -85.5q121 0 206 87t85 208zM637 872
l-42 -70l-306 137l46 89z" />
    <glyph glyph-name="ocircumflex" unicode="&#xf4;" 
d="M843 353q0 -155 -111.5 -269.5t-269.5 -114.5q-162 0 -277 112t-115 273q0 159 111.5 273.5t264.5 114.5q175 0 286 -112t111 -277zM747 356q0 122 -86 209t-208 87q-121 0 -205.5 -87.5t-84.5 -210.5q0 -122 85.5 -207.5t207.5 -85.5q121 0 206 87t85 208zM729 833
l-96 -36l-156 108l-162 -109l-87 36l249 179z" />
    <glyph glyph-name="odieresis" unicode="&#xf6;" horiz-adv-x="920" 
d="M843 353q0 -155 -111.5 -269.5t-269.5 -114.5q-162 0 -277 112t-115 273q0 159 111.5 273.5t264.5 114.5q175 0 286 -112t111 -277zM747 356q0 122 -86 209t-208 87q-121 0 -205.5 -87.5t-84.5 -210.5q0 -122 85.5 -207.5t207.5 -85.5q121 0 206 87t85 208zM691 897
l-72 -91l-75 86l73 93zM422 895l-70 -92l-75 86l73 94z" />
    <glyph glyph-name="otilde" unicode="&#xf5;" 
d="M843 353q0 -155 -111.5 -269.5t-269.5 -114.5q-162 0 -277 112t-115 273q0 159 111.5 273.5t264.5 114.5q175 0 286 -112t111 -277zM747 356q0 122 -86 209t-208 87q-121 0 -205.5 -87.5t-84.5 -210.5q0 -122 85.5 -207.5t207.5 -85.5q121 0 206 87t85 208zM741 892
q-34 -43 -75 -67.5t-88 -24.5q-38 0 -97 24.5t-86 24.5t-52 -15q-16 -10 -44 -36l-73 44q38 46 69 65q39 24 90 24q38 0 79 -14q96 -33 107 -33q41 0 69 23q22 25 23 26z" />
    <glyph glyph-name="uacute" unicode="&#xfa;" horiz-adv-x="699" 
d="M636 0l-90 -17v106q-28 -42 -51 -63q-68 -62 -160 -62q-11 -1 -16 -1q-93 0 -165 57q-95 75 -95 217v471l97 17v-509q0 -62 42 -108q51 -56 143 -56q89 0 141 66q59 75 59 185v405l95 18v-726zM532 940l-327 -137l-36 72l314 160z" />
    <glyph glyph-name="ugrave" unicode="&#xf9;" horiz-adv-x="709" 
d="M636 0l-90 -17v106q-28 -42 -51 -63q-68 -62 -160 -62q-11 -1 -16 -1q-93 0 -165 57q-95 75 -95 217v471l97 17v-509q0 -62 42 -108q51 -56 143 -56q89 0 141 66q59 75 59 185v405l95 18v-726zM545 870l-42 -70l-306 137l46 89z" />
    <glyph glyph-name="ucircumflex" unicode="&#xfb;" horiz-adv-x="695" 
d="M636 0l-90 -17v106q-28 -42 -51 -63q-68 -62 -160 -62q-11 -1 -16 -1q-93 0 -165 57q-95 75 -95 217v471l97 17v-509q0 -62 42 -108q51 -56 143 -56q89 0 141 66q59 75 59 185v405l95 18v-726zM630 839l-96 -36l-156 108l-162 -109l-87 36l249 179z" />
    <glyph glyph-name="udieresis" unicode="&#xfc;" horiz-adv-x="695" 
d="M636 0l-90 -17v106q-28 -42 -51 -63q-68 -62 -160 -62q-11 -1 -16 -1q-93 0 -165 57q-95 75 -95 217v471l97 17v-509q0 -62 42 -108q51 -56 143 -56q89 0 141 66q59 75 59 185v405l95 18v-726zM573 893l-72 -91l-75 86l73 93zM304 891l-70 -92l-75 86l73 94z" />
    <glyph glyph-name="dagger" unicode="&#x2020;" horiz-adv-x="816" 
d="M749 617h-304v-879h-79v879h-298l-1 86h299v305h82v-306h301v-85z" />
    <glyph glyph-name="degree" unicode="&#xb0;" horiz-adv-x="442" 
d="M374 892q0 -62 -46 -107t-110 -45q-65 0 -110 47t-45 112q0 62 45 107t108 45q64 0 111 -47t47 -112zM333 897q0 46 -34 78t-81 32t-79.5 -31.5t-32.5 -77.5q0 -48 32.5 -81.5t79.5 -33.5t81 33t34 81z" />
    <glyph glyph-name="cent" unicode="&#xa2;" horiz-adv-x="573" 
d="M515 772l-45 -61q-13 9 -20 13q-23 14 -41 19.5t-27 7t-25 1.5v-384q17 0 29 3.5t28.5 10t36.5 20.5q6 4 17 12l44 -63q-15 -11 -24 -16q-29 -18 -51.5 -26.5t-37.5 -12t-39 -3.5v-237l-68 -12v248q-89 11 -156 78q-70 70 -70 181q0 119 68 193t158 89v177l65 15v-193
q28 -3 47 -8t48 -16q17 -7 49 -27q5 -3 14 -9zM292 371v378q-67 -19 -104 -71t-37 -127q0 -95 68 -146q23 -17 73 -34z" />
    <glyph glyph-name="sterling" unicode="&#xa3;" horiz-adv-x="883" 
d="M817 316v-7q0 -10 1 -19q0 -36 -6 -73t-25 -73q-35 -66 -102 -103q-74 -41 -179 -41h-444v98h128v373h-131l35 95h96v182q0 118 83 200t194 82q113 0 182 -66q51 -49 74 -124q6 -34 13 -68l-87 -21q0 42 -31 99q-51 94 -153 94q-109 0 -150 -80q-26 -51 -26 -144v-20.5
t1 -18.5v-115h228v-95h-228v-374h184q68 0 106 9q51 12 88 48q31 30 44 88q9 40 9 84v12q0 2 -1 6z" />
    <glyph glyph-name="section" unicode="&#xa7;" horiz-adv-x="768" 
d="M704 329q0 -62 -29.5 -107.5t-86.5 -84.5l-41 -28q41 -32 61.5 -71t20.5 -90q0 -94 -70.5 -155.5t-176.5 -61.5q-115 0 -187 77t-72 188h86q-1 -7 -1.5 -15.5t-0.5 -12.5q0 -67 50 -112.5t134 -45.5q46 0 79 16q38 19 54 55q12 29 12 59q0 42 -21 80t-59 63l-290 192
q-53 35 -79.5 80.5t-26.5 107.5t28 107t85 81l35 21q-38 34 -54 71t-16 90q0 90 72 148.5t170 58.5q116 0 186 -75q67 -72 67 -185h-78q1 6 1 18q0 94 -85 144q-38 24 -88 24q-54 0 -97.5 -29.5t-55.5 -78.5q-4 -15 -4 -31q0 -44 30 -84q25 -34 74 -64l207 -127
q83 -51 118 -92q49 -57 49 -131zM623 313q0 41 -18 70.5t-56 53.5l-293 188l-30 -16q-42 -24 -64 -53q-25 -34 -25 -77q0 -45 21 -77t63 -59l279 -185l34 21q42 26 65.5 58t23.5 76z" />
    <glyph glyph-name="bullet" unicode="&#x2022;" horiz-adv-x="350" 
d="M293 455q0 -49 -33 -83t-82 -34q-48 0 -82.5 32.5t-34.5 79.5q0 48 32.5 83.5t80.5 35.5t83.5 -33.5t35.5 -80.5z" />
    <glyph glyph-name="paragraph" unicode="&#xb6;" horiz-adv-x="754" 
d="M690 -232h-93v1177h-172v-1179l-93 -2v729q-111 0 -191 79t-80 191q0 115 80 196t198 81h351v-1272z" />
    <glyph glyph-name="germandbls" unicode="&#xdf;" horiz-adv-x="864" 
d="M801 285q0 -128 -90.5 -217.5t-206.5 -89.5q-109 0 -187 66q-35 30 -60 71v-108l-90 -25v525h-108l28 86h80v164q0 112 81.5 194.5t187.5 82.5q108 0 193 -75q90 -79 90 -193q0 -105 -58 -171q-19 -22 -59 -45q13 0 51 -19q60 -29 96 -78q52 -69 52 -168zM701 294
q-8 89 -75 143q-59 48 -142 55q-23 0 -50 0.5t-50 1.5v85h17h15q9 0 21 0.5t32 3.5q59 11 99 47q54 49 54 135q0 77 -58 129q-53 48 -120 48q-86 0 -134.5 -52.5t-48.5 -131.5v-513l26 13l16 -47q25 -55 64 -88q57 -48 136 -48t139 57t60 141q0 14 -1 21z" />
    <glyph glyph-name="registered" unicode="&#xae;" horiz-adv-x="1115" 
d="M552 0q-233 0 -371 155q-124 140 -124 340q0 202 123 341q138 155 372 155t372 -155q124 -140 124 -341t-123 -340q-138 -155 -373 -155zM552 53q209 0 332 138q111 124 111 304q0 179 -111 304q-123 138 -332 138q-208 0 -331 -138q-111 -125 -111 -304q0 -180 110 -304
q122 -138 332 -138zM789 191h-62l-4 1q-12 24 -14.5 126.5t-50.5 127.5q-16 9 -30.5 11.5t-35.5 2.5h-24h-158v-269h-58v595h218q96 0 148 -28q70 -37 70 -127q0 -54 -25 -90.5t-74 -57.5q30 -17 33 -19q15 -11 25.5 -31t14 -39.5t3.5 -43.5q0 -9 -1 -28t-1 -30
q0 -24 2.5 -39t10.5 -39q2 -8 6.5 -13.5t6.5 -9.5zM731 624q0 63 -48 90q-38 22 -104 22h-169v-225h167q68 0 105 21q49 28 49 92z" />
    <glyph glyph-name="copyright" unicode="&#xa9;" horiz-adv-x="1121" 
d="M552 0q-233 0 -371 155q-124 140 -124 340q0 202 123 341q138 155 372 155t372 -155q124 -140 124 -341t-123 -340q-138 -155 -373 -155zM552 53q209 0 332 138q111 124 111 304q0 179 -111 304q-123 138 -332 138q-208 0 -331 -138q-111 -125 -111 -304q0 -180 110 -304
q122 -138 332 -138zM797 395q-17 -95 -88 -153t-171 -58q-129 0 -192 96q-53 80 -53 211q0 130 65 218q73 98 198 98q86 0 151.5 -44.5t78.5 -123.5l4 -23h-59l-4 19q-13 56 -62 87.5t-110 31.5q-104 0 -158 -82q-46 -70 -46 -179q0 -112 34 -170q45 -77 157 -90q5 -1 16 -1
q64 0 115 47t64 116h60z" />
    <glyph glyph-name="trademark" unicode="&#x2122;" horiz-adv-x="987" 
d="M920 518h-48v439l-163 -438h-44l-157 439v-440h-49l-1 494h76l155 -434l160 434h71v-494zM422 970h-155v-455h-48v455h-154v41h357v-41z" />
    <glyph glyph-name="acute" unicode="&#xb4;" horiz-adv-x="490" 
d="M422 946l-327 -137l-36 72l314 160z" />
    <glyph glyph-name="dieresis" unicode="&#xa8;" horiz-adv-x="527" 
d="M473 960l-72 -91l-75 86l73 93zM204 958l-70 -92l-75 86l73 94z" />
    <glyph glyph-name="notequal" unicode="&#x2260;" horiz-adv-x="859" 
d="M800 452h-268l-113 -189l380 -1v-81h-422l-123 -219l-68 41l99 178l-214 1v80l261 1l104 189h-365v82l412 -1l127 227l68 -41l-104 -186h226v-81z" />
    <glyph glyph-name="AE" unicode="&#xc6;" horiz-adv-x="1544" 
d="M1516 97l-24 -97h-567l1 386h-412l-398 -410l-88 25l898 925v95l539 -2l23 -103h-459v-357h390v-94h-390v-368h487zM928 477v342l-329 -342h329z" />
    <glyph glyph-name="Oslash" unicode="&#xd8;" horiz-adv-x="1181" 
d="M1112 498q0 -214 -153 -370t-367 -156q-52 0 -102 10t-97 29l-40 -85l-74 25l45 95q-120 71 -191 193.5t-71 267.5q0 216 153.5 371.5t366.5 155.5q98 0 190 -36l39 83l74 -29l-42 -88q123 -70 196 -193.5t73 -272.5zM729 907q-37 14 -73.5 21t-80.5 7
q-170 0 -290.5 -128.5t-120.5 -300.5q0 -115 54.5 -213t147.5 -158zM1005 503q0 115 -54.5 213.5t-150.5 156.5l-365 -774q72 -29 151 -29q173 0 296 127t123 306z" />
    <glyph glyph-name="infinity" unicode="&#x221e;" horiz-adv-x="1134" 
d="M1074 358q0 -98 -62.5 -159.5t-145.5 -61.5q-56 0 -117.5 25t-114.5 75l-65 61l-66 -61q-53 -49 -114.5 -74.5t-117.5 -25.5q-84 0 -144 59q-65 64 -65 162q0 85 63 144t150 59q53 0 106.5 -24.5t104.5 -70.5l82 -74l82 74q53 47 105 71t106 24q88 0 150.5 -58.5
t62.5 -144.5zM1001 353q-5 57 -45.5 93.5t-99.5 36.5q-50 0 -93 -25q-13 -8 -51 -36l-98 -74l91 -84q33 -31 68 -44t82 -13q65 0 105.5 42.5t40.5 103.5zM523 348l-98 74q-44 32 -68 44q-35 17 -76 17q-61 0 -103 -36.5t-42 -93.5q0 -62 40 -104t106 -42q88 0 150 57z" />
    <glyph glyph-name="plusminus" unicode="&#xb1;" horiz-adv-x="684" 
d="M617 406h-243v-242h-63v242h-241l1 69h240v243h65v-243h241v-69zM612 -2h-553v52h553v-52z" />
    <glyph glyph-name="lessequal" unicode="&#x2264;" horiz-adv-x="795" 
d="M675 143l-555 260v59l554 252v-75l-462 -207l463 -217v-72zM674 -1h-553v63h553v-63z" />
    <glyph glyph-name="greaterequal" unicode="&#x2265;" horiz-adv-x="795" 
d="M681 403l-555 -260v72l462 217l-461 207v75l554 -252v-59zM680 -1h-553v63h553v-63z" />
    <glyph glyph-name="yen" unicode="&#xa5;" horiz-adv-x="858" 
d="M812 1011l-265 -538h236v-82h-276l-93 -190h369v-81h-409l-74 -150l-107 30l63 120h-202v81h245l90 171l-11 19h-324v82h278l-303 538l103 37l312 -563l271 560z" />
    <glyph glyph-name="mu" unicode="&#xb5;" horiz-adv-x="910" 
d="M856 151l-9 -45q-11 -54 -66 -93q-49 -35 -98 -35q-8 0 -12 1q-49 8 -86 47q-41 43 -41 97l-38 -37q-45 -45 -96 -73.5t-89 -28.5t-83 20q-54 24 -84 65v-52q0 -42 16 -87q36 -100 36 -150q0 -38 -20 -66.5t-54 -28.5q-31 0 -50.5 26t-19.5 60q0 52 20.5 107.5t23.5 87.5
l3 40v728h123v-502q0 -63 37 -109.5t95 -46.5t118 46q64 49 64 108v504h121v-567q0 -44 21 -82t56 -38q7 0 11 1q26 5 41.5 21.5t22.5 43.5l11 38h26z" />
    <glyph glyph-name="partialdiff" unicode="&#x2202;" horiz-adv-x="740" 
d="M675 542q0 -209 -87 -378q-98 -190 -248 -190q-15 0 -23 1q-124 12 -192 86t-68 187q0 123 79.5 214.5t197.5 91.5q53 0 93 -16q31 -12 83 -49l42 -30l11 70q3 22 5 43t2 43q0 140 -59 239q-66 111 -182 111q-33 0 -67.5 -11.5l-67.5 -22.5l-26 -8l-52 66l59 17
q36 10 66 15t65 5q167 0 273 -154q96 -140 96 -330zM541 408l-37 35q-41 40 -92 50q-17 3 -33 3q-68 0 -122 -59q-49 -53 -71 -134q-13 -49 -13 -91q0 -71 30.5 -124.5t91.5 -72.5q20 -6 37 -6q74 0 127 98q40 75 62 193z" />
    <glyph glyph-name="summation" unicode="&#x3a3;" horiz-adv-x="1050" 
d="M985 190q-14 -40 -23 -75.5t-17 -78.5t-11.5 -75.5t-3.5 -69.5l-96 19h-775l480 528l-472 589l88 -8h734l1 -216h-28q0 38 -11.5 66t-38.5 52t-55.5 30t-77.5 6h-396l381 -459l-408 -459h544q27 0 46.5 7.5t43.5 26.5q33 24 49 51.5t16 65.5h30z" />
    <glyph glyph-name="product" unicode="&#x220f;" horiz-adv-x="1215" 
d="M1142 -89h-422v25l35 2q28 0 44.5 4t30 17.5t18 27.5t4.5 35q-1 20 -1 31v892h-494v-884q0 -39 6 -62.5t29 -40.5q16 -12 34.5 -15.5t43.5 -3.5h27v-28h-422v30h33q30 0 43.5 3t31.5 16.5t23.5 34t5.5 48.5v19v805q0 59 -43 96q-18 16 -31 23t-33 7l-24 1v29h1061v-30
l-29 -2q-18 0 -33 -6.5t-31 -19.5q-27 -22 -35 -48.5t-8 -70.5v-795q0 -37 4 -55.5t22.5 -34.5t35.5 -21.5t43 -5.5l31 -1v-22z" />
    <glyph glyph-name="pi" unicode="&#x3c0;" horiz-adv-x="887" 
d="M835 233l-4 -32q-10 -86 -59 -141q-53 -60 -131 -60q-68 0 -101 70q-27 58 -27 152q0 33 3 63l35 317h-173l-59 -468q-7 -55 -31 -95q-29 -48 -68 -48q-8 0 -19 3q-25 7 -38 17q-17 13 -21.5 30t-4.5 28q0 27 22 52q66 74 69 83q11 25 15 36q8 21 10 38l35 318h-48
q-18 0 -35 -0.5t-38 -9t-46 -37.5q-20 -23 -25 -39l-25 10l9 20q38 83 44 93q27 45 72.5 67.5t95.5 22.5h534v-121h-194l-20 -353q0 -49 26.5 -87t70.5 -38q34 0 58.5 23.5t33.5 60.5l6 25h28z" />
    <glyph glyph-name="integral" unicode="&#x222b;" horiz-adv-x="477" 
d="M411 1065q-3 -22 -20 -36t-40 -14q-12 0 -26 10q-21 16 -26 18q-6 3 -10 3q-12 0 -17 -18t-5 -49q0 -25 13 -172q6 -68 6 -103v-428q0 -97 -7 -166q-11 -112 -39 -176q-35 -82 -96 -82h-10q-7 1 -22.5 5t-32 21.5t-16.5 38.5q0 23 15 38t37 15q15 0 25 -10q27 -27 32 -28
q23 -7 31 24.5t8 95.5q0 39 -1.5 86l-2.5 76v594q0 174 38 254q32 67 89 67q32 0 56.5 -18t20.5 -46z" />
    <glyph glyph-name="ordfeminine" unicode="&#xaa;" horiz-adv-x="406" 
d="M343 597l-44 -7v43q-16 -17 -27 -25q-35 -25 -75 -25q-60 0 -98 36t-38 101q0 54 38 91t92 37q43 0 78 -21q11 -7 26 -21l1 28v13q0 34 -11 50q-19 27 -72 27q-36 0 -81 -15q-15 -5 -39 -16l19 57q24 6 38 8q47 9 71 9q122 0 122 -115v-255zM336 489h-256v45h256v-45z
M299 722q0 37 -28.5 60.5t-71.5 23.5q-40 0 -66.5 -25.5t-26.5 -67.5t28.5 -64t70.5 -22q39 0 66.5 26.5t27.5 68.5z" />
    <glyph glyph-name="ordmasculine" unicode="&#xba;" horiz-adv-x="517" 
d="M441 779q0 -78 -52.5 -135.5t-125.5 -57.5q-83 0 -144 51q-64 54 -64 132q0 83 53 143t132 60q86 0 143.5 -55.5t57.5 -137.5zM413 490h-326v45h326v-45zM393 781q0 61 -43.5 103.5t-104.5 42.5q-60 0 -101.5 -44.5t-41.5 -106.5q0 -59 44.5 -101.5t105.5 -42.5
q59 0 100 44t41 105z" />
    <glyph glyph-name="Omega" unicode="&#x3a9;" horiz-adv-x="1101" 
d="M1037 -2h-405l20 200q98 44 145 127t47 197q0 141 -53 211q-68 90 -235 90q-155 0 -229 -89q-64 -77 -64 -212q0 -112 47.5 -196t143.5 -128l20 -200h-405v211h26q0 -17 2 -25.5t12.5 -25t28 -24.5t42.5 -8h222v42q-131 22 -213.5 121.5t-82.5 234.5q0 159 128 252
q123 89 320 89q207 0 326.5 -89.5t119.5 -251.5q0 -136 -81.5 -234.5t-214.5 -121.5v-42h222q49 0 72 35q7 10 10 23t3 25h26v-211z" />
    <glyph glyph-name="ae" unicode="&#xe6;" horiz-adv-x="1277" 
d="M1214 569l-560 -344l22 -42q32 -48 80 -78q67 -42 156 -42q90 0 198 68q36 22 90 68v-121q-48 -36 -81 -53q-102 -54 -200 -54q-99 0 -189 37q-105 43 -156 122l-20 -40q-31 -48 -74 -76q-65 -41 -153 -41q-118 0 -193 71q-79 75 -79 204q0 105 76.5 179.5t184.5 74.5
q87 0 156 -41q23 -13 52 -41v54v28q0 69 -23 101q-37 52 -140 52q-70 0 -162 -30q-31 -10 -79 -31l38 114q55 13 117.5 23t100.5 10q95 0 152 -34.5t79 -103.5q45 59 107 94q67 38 146 46q14 2 28.5 2h22.5q100 0 178 -45q56 -32 96 -85zM1082 592q-29 22 -50 33
q-65 34 -129 34q-39 0 -77 -11t-79 -38q-73 -49 -104 -131q-21 -56 -21 -123q0 -20 0.5 -28.5t2.5 -15.5zM532 251q0 75 -58 121.5t-143 46.5q-80 0 -132 -51t-52 -135t60 -130q54 -41 137 -41q80 0 134 52t54 137z" />
    <glyph glyph-name="oslash" unicode="&#xf8;" 
d="M843 353q0 -155 -111.5 -269.5t-269.5 -114.5q-74 0 -141 26l-28 -57l-74 25l32 66q-83 52 -132 137.5t-49 187.5q0 159 111.5 273.5t264.5 114.5q76 0 143 -23l30 62l74 -29l-33 -66q86 -51 134.5 -139.5t48.5 -193.5zM548 636q-48 16 -95 16q-121 0 -205.5 -87.5
t-84.5 -210.5q0 -74 34.5 -138.5t93.5 -104.5zM747 356q0 75 -34.5 138.5t-94.5 105.5l-257 -523q48 -16 95 -16q121 0 206 87t85 208z" />
    <glyph glyph-name="questiondown" unicode="&#xbf;" horiz-adv-x="681" 
d="M408 662l-75 -87l-74 91l73 88zM627 -83q-12 -26 -23 -53q-34 -62 -84 -100q-70 -54 -163 -54q-116 0 -195 70.5t-90 181.5q-1 10 -1.5 17.5t-0.5 12.5q0 76 46 142q39 56 117 111q38 27 52 51.5t14 62.5v105l78 16v-165q0 -48 -32 -87q-22 -27 -75.5 -63t-80.5 -81
t-27 -108q0 -78 49.5 -129.5t136.5 -51.5q101 0 160 82q19 27 40 83z" />
    <glyph glyph-name="exclamdown" unicode="&#xa1;" horiz-adv-x="283" 
d="M222 666l-79 -96l-84 92l81 95zM190 -290l-102 -22l8 797l88 9z" />
    <glyph glyph-name="logicalnot" unicode="&#xac;" horiz-adv-x="1124" 
d="M1059 0h-81v346h-910v76h991v-422z" />
    <glyph glyph-name="radical" unicode="&#x221a;" horiz-adv-x="765" 
d="M703 1106l-190 -1171l-312 618l-119 -61l-20 42l183 86l251 -493l164 985z" />
    <glyph glyph-name="florin" unicode="&#x192;" horiz-adv-x="722" 
d="M657 1057q-18 -51 -72 -51q-12 0 -23 10q-18 17 -25 20t-10 3q-30 0 -46 -153q-11 -101 -20 -138l-7 -28h136l-7 -57h-144l-83 -414q-20 -97 -41 -165q-35 -111 -78 -176q-55 -83 -119 -83h-18q-9 3 -13 4q-16 4 -27.5 19t-11.5 32q0 5 2 13q8 23 24 36.5t40 13.5
q18 0 28 -18t19 -20q29 -9 51 51q10 25 51 231l95 477h-150l3 57h168l8 37q19 92 44 164q32 91 68 140q44 59 96 59q23 0 43.5 -16t20.5 -36q0 -4 -2 -12z" />
    <glyph glyph-name="approxequal" unicode="&#x2248;" horiz-adv-x="942" 
d="M888 530l-30 -34q-40 -46 -83 -66.5t-103 -20.5q-36 0 -75 11.5l-76 23.5l-123 34l-50.5 14t-47.5 7q-14 0 -32 -3q-35 -7 -58.5 -21t-49.5 -41l-26 -27l-64 42l21 22q38 41 78.5 63t95.5 31q10 2 22 3t23 1q32 0 71 -10q17 -4 48 -14l108 -32q32 -11 64.5 -20.5
t67.5 -9.5q80 0 133 56l26 29zM888 291l-30 -34q-39 -45 -83.5 -66.5t-102.5 -21.5q-37 0 -75.5 12l-75.5 24l-123 34l-50.5 14t-47.5 7q-14 0 -32 -3q-35 -7 -58.5 -21t-49.5 -41l-26 -27l-64 41l21 23q39 42 79 63.5t95 29.5q10 2 22 3t23 1q29 0 57 -6q13 -3 62 -17
l108 -33l65 -19.5t67 -9.5q80 0 133 56l26 28z" />
    <glyph glyph-name="Delta" unicode="&#x2206;" horiz-adv-x="1041" 
d="M975 0h-910l486 1020zM795 66l-301 712l-334 -712h635z" />
    <glyph glyph-name="guillemotleft" unicode="&#xab;" horiz-adv-x="765" 
d="M715 536l-206 -147l201 -143v-148l-284 222v142l289 214v-140zM352 536l-205 -147l201 -143v-148l-285 222v142l289 214v-140z" />
    <glyph glyph-name="guillemotright" unicode="&#xbb;" horiz-adv-x="774" 
d="M721 320l-284 -222v148l200 143l-205 147v140l289 -214v-142zM359 320l-285 -222v148l201 143l-205 147v140l289 -214v-142z" />
    <glyph glyph-name="ellipsis" unicode="&#x2026;" horiz-adv-x="977" 
d="M910 58l-87 -89l-80 96l89 90zM571 58l-87 -89l-80 96l89 90zM226 58l-87 -89l-80 96l89 90z" />
    <glyph glyph-name="nonbreakingspace" unicode="&#xa0;" horiz-adv-x="834" 
 />
    <glyph glyph-name="Agrave" unicode="&#xc0;" horiz-adv-x="1128" 
d="M1033 0l-97 -30l-201 416h-413l-202 -410l-100 24l514 1035zM695 477l-165 342l-165 -342h330zM688 1145l-42 -70l-306 137l46 89z" />
    <glyph glyph-name="Atilde" unicode="&#xc3;" horiz-adv-x="1133" 
d="M1033 0l-97 -30l-201 416h-413l-202 -410l-100 24l514 1035zM695 477l-165 342l-165 -342h330zM801 1163q-34 -43 -75 -67.5t-88 -24.5q-38 0 -97 24.5t-86 24.5t-52 -15q-16 -10 -44 -36l-73 44q38 46 69 65q39 24 90 24q38 0 79 -14q96 -33 107 -33q41 0 69 23
q22 25 23 26z" />
    <glyph glyph-name="Otilde" unicode="&#xd5;" horiz-adv-x="1172" 
d="M1112 498q0 -214 -153 -370t-367 -156q-220 0 -375 157t-155 378q0 216 153.5 371.5t366.5 155.5q219 0 374.5 -156.5t155.5 -379.5zM1005 503q0 177 -121 303q-124 129 -309 129q-170 0 -290.5 -128.5t-120.5 -300.5q0 -177 124.5 -306.5t297.5 -129.5t296 127t123 306z
M867 1168q-34 -43 -75 -67.5t-88 -24.5q-38 0 -97 24.5t-86 24.5t-52 -15q-16 -10 -44 -36l-73 44q38 46 69 65q39 24 90 24q38 0 79 -14q96 -33 107 -33q41 0 69 23q22 25 23 26z" />
    <glyph glyph-name="OE" unicode="&#x152;" horiz-adv-x="1655" 
d="M1605 86l-24 -97h-567v205q-72 -102 -179 -160q-113 -62 -239 -62q-220 0 -377 158t-157 379q0 214 150.5 369.5t362.5 155.5q133 0 249 -60.5t190 -165.5v192h539l24 -97h-459v-355h389v-97h-389v-365h487zM1004 524q0 172 -129 291.5t-306 119.5q-169 0 -287 -127
t-118 -302q0 -177 126.5 -306.5t299.5 -129.5q178 0 298 138q116 133 116 316z" />
    <glyph glyph-name="oe" unicode="&#x153;" horiz-adv-x="1480" 
d="M1436 566l-560 -344l22 -42q32 -48 80 -78q67 -42 156 -42q90 0 198 68q36 22 90 68v-121q-48 -36 -81 -53q-102 -54 -200 -54q-112 0 -204.5 52.5t-142.5 147.5q-50 -90 -138.5 -144.5t-193.5 -54.5q-162 0 -277 112t-115 273q0 159 111.5 273.5t264.5 114.5
q118 0 208 -52t140 -143q43 80 115 130q77 54 173 63q14 2 28.5 2h22.5q100 0 178 -45q56 -32 96 -85zM1304 589q-29 22 -50 33q-65 34 -129 34q-39 0 -77 -11t-79 -38q-73 -49 -104 -131q-21 -56 -21 -123q0 -20 0.5 -28.5t2.5 -15.5zM747 356q0 122 -86 209t-208 87
q-121 0 -205.5 -87.5t-84.5 -210.5q0 -122 85.5 -207.5t207.5 -85.5q121 0 206 87t85 208z" />
    <glyph glyph-name="endash" unicode="&#x2013;" horiz-adv-x="1141" 
d="M1077 415h-1018v90h1018v-90z" />
    <glyph glyph-name="emdash" unicode="&#x2014;" horiz-adv-x="1323" 
d="M1260 415h-1201v90h1201v-90z" />
    <glyph glyph-name="quotedblleft" unicode="&#x201c;" horiz-adv-x="451" 
d="M396 1012q-7 -1 -44 -56.5t-37 -76.5q-3 -29 22 -46q3 -2 30 -13l-55 -70q-28 14 -51 45t-23 64q0 41 56 119q18 26 57 70zM228 1011q-7 -1 -44 -56q-40 -59 -40 -79q-3 -29 22 -48q9 -7 29 -15l-56 -66q-22 11 -41 29q-38 36 -38 77t61 121q20 26 62 73z" />
    <glyph glyph-name="quotedblright" unicode="&#x201d;" horiz-adv-x="456" 
d="M395 944q0 -41 -61 -121q-20 -26 -62 -72l-45 36q7 1 45.5 57.5t38.5 77.5q2 28 -22 47q-27 15 -29 16l56 66q31 -16 55 -45.5t24 -61.5zM217 938q0 -41 -56 -119q-18 -26 -57 -70l-45 36q7 1 44 56.5t37 77.5q3 28 -22 45q-4 2 -30 13l55 71q33 -25 38 -30
q36 -37 36 -80z" />
    <glyph glyph-name="quoteleft" unicode="&#x2018;" horiz-adv-x="282" 
d="M228 1011q-7 -1 -44 -56q-40 -59 -40 -79q-3 -29 22 -48q9 -7 29 -15l-56 -66q-22 11 -41 29q-38 36 -38 77t61 121q20 26 62 73z" />
    <glyph glyph-name="quoteright" unicode="&#x2019;" horiz-adv-x="277" 
d="M217 934q0 -41 -56 -119q-18 -26 -57 -70l-45 36q7 1 44 56.5t37 77.5q3 28 -22 45q-4 2 -30 13l55 71q33 -25 38 -30q36 -37 36 -80z" />
    <glyph glyph-name="divide" unicode="&#xf7;" horiz-adv-x="967" 
d="M580 628q0 -38 -25.5 -65.5t-61.5 -27.5q-38 0 -65.5 26.5t-27.5 64.5q0 37 26.5 63.5t64.5 26.5q35 0 62 -26t27 -62zM903 363h-838v91h838v-91zM581 191q0 -38 -25.5 -65.5t-61.5 -27.5q-38 0 -65.5 26.5t-27.5 64.5q0 37 26.5 63.5t64.5 26.5q35 0 62 -26t27 -62z" />
    <glyph glyph-name="lozenge" unicode="&#x25ca;" horiz-adv-x="753" 
d="M692 520l-270 -522h-87l-265 514l265 504h87zM610 517l-230 424l-230 -429l227 -449z" />
    <glyph glyph-name="ydieresis" unicode="&#xff;" horiz-adv-x="868" 
d="M769 708l-495 -1004l-96 31l190 371l-344 602l102 37l294 -531l256 524zM648 895l-72 -91l-75 86l73 93zM379 893l-70 -92l-75 86l73 94z" />
    <glyph glyph-name="Ydieresis" unicode="&#x178;" horiz-adv-x="848" 
d="M812 1011l-512 -1041l-107 30l196 372l-360 639l103 37l312 -563l271 560zM657 1168l-72 -91l-75 86l73 93zM388 1166l-70 -92l-75 86l73 94z" />
    <glyph glyph-name="periodcentered" unicode="&#xb7;" horiz-adv-x="289" 
d="M226 503l-87 -89l-80 96l89 91z" />
    <glyph glyph-name="periodcentered" unicode="&#x2219;" horiz-adv-x="289" 
d="M226 503l-87 -89l-80 96l89 91z" />
    <glyph glyph-name="quotesinglbase" unicode="&#x201a;" horiz-adv-x="277" 
d="M217 16q0 -41 -56 -119q-18 -26 -57 -70l-45 36q7 1 44 56.5t37 77.5q3 28 -22 45q-4 2 -30 13l55 71q33 -25 38 -30q36 -37 36 -80z" />
    <glyph glyph-name="quotedblbase" unicode="&#x201e;" horiz-adv-x="456" 
d="M395 26q0 -41 -61 -121q-20 -26 -62 -72l-45 36q7 1 45.5 57.5t38.5 77.5q2 28 -22 47q-27 15 -29 16l56 66q31 -16 55 -45.5t24 -61.5zM217 20q0 -41 -56 -119q-18 -26 -57 -70l-45 36q7 1 44 56.5t37 77.5q3 28 -22 45q-4 2 -30 13l55 71q33 -25 38 -30q36 -37 36 -80z
" />
    <glyph glyph-name="Acircumflex" unicode="&#xc2;" horiz-adv-x="1064" 
d="M1033 0l-97 -30l-201 416h-413l-202 -410l-100 24l514 1035zM695 477l-165 342l-165 -342h330zM798 1110l-96 -36l-156 108l-162 -109l-87 36l249 179z" />
    <glyph glyph-name="Ecircumflex" unicode="&#xca;" horiz-adv-x="768" 
d="M681 97l-24 -97h-567v1011h539l24 -97h-459v-355h389v-97h-389v-365h487zM640 1111l-96 -36l-156 108l-162 -109l-87 36l249 179z" />
    <glyph glyph-name="Aacute" unicode="&#xc1;" horiz-adv-x="1064" 
d="M1033 0l-97 -30l-201 416h-413l-202 -410l-100 24l514 1035zM695 477l-165 342l-165 -342h330zM710 1210l-327 -137l-36 72l314 160z" />
    <glyph glyph-name="Edieresis" unicode="&#xcb;" horiz-adv-x="760" 
d="M681 97l-24 -97h-567v1011h539l24 -97h-459v-355h389v-97h-389v-365h487zM577 1168l-72 -91l-75 86l73 93zM308 1166l-70 -92l-75 86l73 94z" />
    <glyph glyph-name="Egrave" unicode="&#xc8;" horiz-adv-x="768" 
d="M681 97l-24 -97h-567v1011h539l24 -97h-459v-355h389v-97h-389v-365h487zM559 1138l-42 -70l-306 137l46 89z" />
    <glyph glyph-name="Iacute" unicode="&#xcd;" horiz-adv-x="360" 
d="M218 0l-107 -15v1026l107 17v-1028zM382 1210l-327 -137l-36 72l314 160z" />
    <glyph glyph-name="Icircumflex" unicode="&#xce;" horiz-adv-x="488" 
d="M266 8l-107 -15v1026l107 17v-1028zM488 1119l-96 -36l-156 108l-162 -109l-87 36l249 179z" />
    <glyph glyph-name="Idieresis" unicode="&#xcf;" horiz-adv-x="416" 
d="M250 0l-107 -15v1026l107 17v-1028zM417 1168l-72 -91l-75 86l73 93zM148 1166l-70 -92l-75 86l73 94z" />
    <glyph glyph-name="Igrave" unicode="&#xcc;" horiz-adv-x="352" 
d="M218 0l-107 -15v1026l107 17v-1028zM351 1138l-42 -70l-306 137l46 89z" />
    <glyph glyph-name="Oacute" unicode="&#xd3;" horiz-adv-x="1176" 
d="M1112 498q0 -214 -153 -370t-367 -156q-220 0 -375 157t-155 378q0 216 153.5 371.5t366.5 155.5q219 0 374.5 -156.5t155.5 -379.5zM1005 503q0 177 -121 303q-124 129 -309 129q-170 0 -290.5 -128.5t-120.5 -300.5q0 -177 124.5 -306.5t297.5 -129.5t296 127t123 306z
M790 1210l-327 -137l-36 72l314 160z" />
    <glyph glyph-name="Ocircumflex" unicode="&#xd4;" horiz-adv-x="1176" 
d="M1112 498q0 -214 -153 -370t-367 -156q-220 0 -375 157t-155 378q0 216 153.5 371.5t366.5 155.5q219 0 374.5 -156.5t155.5 -379.5zM1005 503q0 177 -121 303q-124 129 -309 129q-170 0 -290.5 -128.5t-120.5 -300.5q0 -177 124.5 -306.5t297.5 -129.5t296 127t123 306z
M848 1111l-96 -36l-156 108l-162 -109l-87 36l249 179z" />
    <glyph glyph-name="Ograve" unicode="&#xd2;" horiz-adv-x="1176" 
d="M1112 498q0 -214 -153 -370t-367 -156q-220 0 -375 157t-155 378q0 216 153.5 371.5t366.5 155.5q219 0 374.5 -156.5t155.5 -379.5zM1005 503q0 177 -121 303q-124 129 -309 129q-170 0 -290.5 -128.5t-120.5 -300.5q0 -177 124.5 -306.5t297.5 -129.5t296 127t123 306z
M759 1138l-42 -70l-306 137l46 89z" />
    <glyph glyph-name="Uacute" unicode="&#xda;" horiz-adv-x="872" 
d="M808 355q0 -180 -99 -276t-273 -96q-178 0 -277.5 95.5t-99.5 250.5v682l111 15v-712q0 -85 43 -143q66 -90 220 -90q125 0 195 68q75 73 75 188v674l105 16v-672zM638 1210l-327 -137l-36 72l314 160z" />
    <glyph glyph-name="Ucircumflex" unicode="&#xdb;" horiz-adv-x="864" 
d="M808 355q0 -180 -99 -276t-273 -96q-178 0 -277.5 95.5t-99.5 250.5v682l111 15v-712q0 -85 43 -143q66 -90 220 -90q125 0 195 68q75 73 75 188v674l105 16v-672zM704 1111l-96 -36l-156 108l-162 -109l-87 36l249 179z" />
    <glyph glyph-name="Ugrave" unicode="&#xd9;" horiz-adv-x="864" 
d="M808 355q0 -180 -99 -276t-273 -96q-178 0 -277.5 95.5t-99.5 250.5v682l111 15v-712q0 -85 43 -143q66 -90 220 -90q125 0 195 68q75 73 75 188v674l105 16v-672zM615 1138l-42 -70l-306 137l46 89z" />
    </font>
</defs>
</svg>
